<svg xmlns="http://www.w3.org/2000/svg" xmlns:xlink="http://www.w3.org/1999/xlink" width="500" zoomAndPan="magnify" viewBox="0 0 375 374.999991" height="500" preserveAspectRatio="xMidYMid meet" version="1.0"><path fill="#ffffff" d="M 58.816406 78.964844 C 102.574219 154.839844 187.167969 301.292969 187.359375 301.507812 C 187.566406 301.730469 315.671875 80.527344 319.132812 73.972656 L 319.546875 73.191406 L 55.484375 73.191406 L 58.816406 78.964844 M 158.972656 122.410156 C 167.546875 137.234375 174.382812 149.300781 174.335938 149.523438 C 174.289062 149.746094 169.230469 158.617188 163.101562 169.234375 C 156.96875 179.855469 151.515625 189.304688 150.988281 190.230469 L 150.023438 191.914062 L 122.53125 144.273438 C 107.40625 118.074219 94.882812 96.398438 94.699219 96.109375 L 94.367188 95.582031 L 118.945312 95.640625 L 143.523438 95.703125 L 158.972656 122.410156 M 205.460938 95.726562 C 205.460938 96.101562 187.597656 126.789062 187.457031 126.652344 C 187.296875 126.492188 170.472656 97.40625 169.859375 96.226562 L 169.523438 95.585938 L 187.492188 95.585938 C 197.378906 95.585938 205.460938 95.648438 205.460938 95.726562 M 280.539062 95.78125 C 279.851562 97.535156 187.5625 256.703125 187.363281 256.480469 C 186.929688 256.007812 163.160156 214.691406 163.160156 214.421875 C 163.160156 214.226562 193.984375 160.726562 230.71875 97.160156 L 231.628906 95.585938 L 256.125 95.585938 C 269.59375 95.585938 280.582031 95.671875 280.539062 95.78125 " fill-opacity="1" fill-rule="evenodd"/></svg>