<?xml version="1.0" encoding="UTF-8" standalone="no"?>
<svg
   width="500"
   zoomAndPan="magnify"
   viewBox="0 0 375 374.999991"
   height="500"
   preserveAspectRatio="xMidYMid meet"
   version="1.0"
   id="svg2"
   sodipodi:docname="learning.svg"
   inkscape:version="1.3.2 (091e20e, 2023-11-25, custom)"
   xmlns:inkscape="http://www.inkscape.org/namespaces/inkscape"
   xmlns:sodipodi="http://sodipodi.sourceforge.net/DTD/sodipodi-0.dtd"
   xmlns:xlink="http://www.w3.org/1999/xlink"
   xmlns="http://www.w3.org/2000/svg"
   xmlns:svg="http://www.w3.org/2000/svg">
  <sodipodi:namedview
     id="namedview2"
     pagecolor="#ffffff"
     bordercolor="#000000"
     borderopacity="0.25"
     inkscape:showpageshadow="2"
     inkscape:pageopacity="0.0"
     inkscape:pagecheckerboard="0"
     inkscape:deskcolor="#d1d1d1"
     inkscape:zoom="2.0039406"
     inkscape:cx="270.7166"
     inkscape:cy="195.36507"
     inkscape:window-width="4128"
     inkscape:window-height="1694"
     inkscape:window-x="-11"
     inkscape:window-y="-11"
     inkscape:window-maximized="1"
     inkscape:current-layer="svg2" />
  <defs
     id="defs1">
    <linearGradient
       id="linearGradient3"
       inkscape:collect="always">
      <stop
         style="stop-color:#00a0ff;stop-opacity:1;"
         offset="0"
         id="stop3" />
      <stop
         style="stop-color:#00ffa0;stop-opacity:1;"
         offset="1"
         id="stop4" />
    </linearGradient>
    <clipPath
       id="1d11040068">
      <path
         d="M 42.1875 0 L 333.1875 0 L 333.1875 375 L 42.1875 375 Z M 42.1875 0 "
         clip-rule="nonzero"
         id="path1" />
    </clipPath>
    <linearGradient
       inkscape:collect="always"
       xlink:href="#linearGradient3"
       id="linearGradient4"
       x1="1.0303347"
       y1="373.92035"
       x2="374.71893"
       y2="1.1548315"
       gradientUnits="userSpaceOnUse" />
  </defs>
  <g
     clip-path="url(#1d11040068)"
     id="g2">
    <path
       fill="#000000"
       d="M 81.683594 349.054688 C 82.226562 350.878906 82.519531 352.808594 82.519531 354.808594 C 82.519531 365.917969 73.484375 374.941406 62.359375 374.941406 C 51.234375 374.941406 42.199219 365.917969 42.199219 354.808594 C 42.199219 343.695312 51.234375 334.675781 62.359375 334.675781 C 67.082031 334.675781 71.429688 336.300781 74.867188 339.023438 L 156.71875 291.828125 C 156.664062 291.238281 156.636719 290.636719 156.636719 290.035156 C 156.636719 287.207031 157.222656 284.515625 158.277344 282.070312 L 91.496094 222.667969 C 88.472656 224.472656 84.9375 225.511719 81.164062 225.511719 C 70.039062 225.511719 61.003906 216.492188 61.003906 205.378906 C 61.003906 194.269531 70.039062 185.246094 81.164062 185.246094 C 86.085938 185.246094 90.59375 187.011719 94.097656 189.941406 L 189.253906 129.144531 C 189.171875 128.832031 189.09375 128.515625 189.023438 128.199219 C 175.675781 126.398438 157.699219 122.417969 123.835938 116.234375 C 120.960938 115.707031 118.871094 113.207031 118.871094 110.285156 L 118.871094 51.464844 L 86.558594 42.882812 C 83.90625 42.179688 82.058594 39.78125 82.058594 37.039062 C 82.058594 34.300781 83.90625 31.902344 86.558594 31.199219 L 202.90625 0.335938 C 203.925781 0.0664062 204.996094 0.0664062 206.015625 0.335938 L 322.363281 31.199219 C 325.015625 31.902344 326.863281 34.300781 326.863281 37.039062 C 326.863281 39.78125 325.015625 42.179688 322.367188 42.882812 L 319.808594 43.5625 L 319.808594 93.539062 L 330.15625 99.519531 C 332.023438 100.601562 333.175781 102.597656 333.175781 104.753906 L 333.175781 145.484375 C 333.175781 147.773438 331.878906 149.867188 329.824219 150.890625 C 327.773438 151.914062 325.316406 151.691406 323.484375 150.3125 L 313.757812 143.007812 L 304.027344 150.3125 C 302.195312 151.691406 299.738281 151.914062 297.6875 150.890625 C 295.632812 149.867188 294.335938 147.773438 294.335938 145.484375 L 294.335938 104.753906 C 294.335938 102.597656 295.488281 100.601562 297.355469 99.519531 L 307.703125 93.539062 L 307.703125 46.777344 L 290.050781 51.464844 L 290.050781 110.285156 C 290.050781 113.207031 287.960938 115.707031 285.085938 116.234375 C 258.015625 121.175781 241.140625 124.714844 228.660156 126.847656 C 227.226562 136.558594 218.839844 144.019531 208.71875 144.019531 C 203.796875 144.019531 199.285156 142.257812 195.785156 139.328125 L 100.625 200.121094 C 101.082031 201.796875 101.324219 203.5625 101.324219 205.378906 C 101.324219 208.324219 100.6875 211.121094 99.550781 213.640625 L 166.1875 272.914062 C 169.269531 271.003906 172.90625 269.902344 176.796875 269.902344 C 187.921875 269.902344 196.957031 278.921875 196.957031 290.035156 C 196.957031 301.144531 187.921875 310.167969 176.796875 310.167969 C 170.648438 310.167969 165.136719 307.410156 161.4375 303.066406 Z M 130.976562 54.675781 C 130.976562 70.617188 130.976562 105.25 130.976562 105.25 C 161.042969 110.808594 177.632812 114.445312 190.105469 116.148438 C 193.144531 108.875 200.335938 103.753906 208.71875 103.753906 C 216.613281 103.753906 223.453125 108.296875 226.761719 114.90625 C 238.394531 112.917969 253.871094 109.699219 277.945312 105.25 L 277.945312 54.675781 L 206.015625 73.773438 C 204.996094 74.042969 203.925781 74.042969 202.90625 73.773438 Z M 176.796875 281.992188 C 172.351562 281.992188 168.746094 285.59375 168.746094 290.035156 C 168.746094 294.472656 172.351562 298.078125 176.796875 298.078125 C 181.242188 298.078125 184.851562 294.472656 184.851562 290.035156 C 184.851562 285.59375 181.242188 281.992188 176.796875 281.992188 Z M 81.164062 197.335938 C 76.71875 197.335938 73.109375 200.941406 73.109375 205.378906 C 73.109375 209.820312 76.71875 213.421875 81.164062 213.421875 C 85.609375 213.421875 89.214844 209.820312 89.214844 205.378906 C 89.214844 200.941406 85.609375 197.335938 81.164062 197.335938 Z M 204.460938 12.433594 L 111.683594 37.042969 L 204.460938 61.675781 L 297.238281 37.042969 Z M 208.71875 115.84375 C 204.273438 115.84375 200.664062 119.449219 200.664062 123.886719 C 200.664062 128.324219 204.273438 131.929688 208.71875 131.929688 C 213.164062 131.929688 216.773438 128.324219 216.773438 123.886719 C 216.773438 119.449219 213.164062 115.84375 208.71875 115.84375 Z M 62.359375 346.765625 C 57.914062 346.765625 54.304688 350.367188 54.304688 354.808594 C 54.304688 359.246094 57.914062 362.851562 62.359375 362.851562 C 66.804688 362.851562 70.410156 359.246094 70.410156 354.808594 C 70.410156 350.367188 66.804688 346.765625 62.359375 346.765625 Z M 313.757812 104.007812 L 306.445312 108.238281 C 306.445312 108.238281 306.445312 133.371094 306.445312 133.371094 L 310.117188 130.609375 C 312.273438 128.992188 315.238281 128.992188 317.394531 130.609375 L 321.070312 133.371094 L 321.070312 108.238281 Z M 313.757812 104.007812 "
       fill-opacity="1"
       fill-rule="evenodd"
       id="path2"
       style="fill:url(#linearGradient4)" />
  </g>
</svg>
