<?xml version="1.0" encoding="UTF-8" standalone="no"?>
<svg
   width="500"
   zoomAndPan="magnify"
   viewBox="0 0 375 374.999991"
   height="500"
   preserveAspectRatio="xMidYMid meet"
   version="1.0"
   id="svg5"
   sodipodi:docname="time.svg"
   inkscape:version="1.3.2 (091e20e, 2023-11-25, custom)"
   xmlns:inkscape="http://www.inkscape.org/namespaces/inkscape"
   xmlns:sodipodi="http://sodipodi.sourceforge.net/DTD/sodipodi-0.dtd"
   xmlns:xlink="http://www.w3.org/1999/xlink"
   xmlns="http://www.w3.org/2000/svg"
   xmlns:svg="http://www.w3.org/2000/svg">
  <defs
     id="defs5">
    <linearGradient
       id="linearGradient9"
       inkscape:collect="always">
      <stop
         style="stop-color:#00a0ff;stop-opacity:1;"
         offset="0"
         id="stop9" />
      <stop
         style="stop-color:#00ffa0;stop-opacity:1;"
         offset="1"
         id="stop10" />
    </linearGradient>
    <linearGradient
       inkscape:collect="always"
       xlink:href="#linearGradient9"
       id="linearGradient10"
       x1="1.4234809"
       y1="374.81305"
       x2="373.95673"
       y2="1.2989919"
       gradientUnits="userSpaceOnUse" />
  </defs>
  <sodipodi:namedview
     id="namedview5"
     pagecolor="#ffffff"
     bordercolor="#000000"
     borderopacity="0.25"
     inkscape:showpageshadow="2"
     inkscape:pageopacity="0.0"
     inkscape:pagecheckerboard="0"
     inkscape:deskcolor="#d1d1d1"
     inkscape:zoom="2.0039406"
     inkscape:cx="210.83459"
     inkscape:cy="233.78936"
     inkscape:window-width="2560"
     inkscape:window-height="1566"
     inkscape:window-x="-11"
     inkscape:window-y="1717"
     inkscape:window-maximized="1"
     inkscape:current-layer="svg5" />
  <path
     fill="#000000"
     d="M 344.519531 128.855469 C 344.285156 128.1875 343.984375 127.546875 343.621094 126.941406 C 343.257812 126.332031 342.839844 125.761719 342.363281 125.238281 C 341.886719 124.710938 341.363281 124.238281 340.792969 123.816406 C 340.222656 123.394531 339.617188 123.035156 338.972656 122.734375 C 338.332031 122.433594 337.664062 122.199219 336.976562 122.03125 C 336.289062 121.863281 335.589844 121.761719 334.878906 121.734375 C 334.171875 121.703125 333.464844 121.746094 332.765625 121.855469 C 332.066406 121.96875 331.382812 122.148438 330.71875 122.394531 C 330.050781 122.632812 329.417969 122.9375 328.8125 123.304688 C 328.207031 123.667969 327.640625 124.089844 327.117188 124.566406 C 326.59375 125.046875 326.125 125.570312 325.703125 126.140625 C 325.285156 126.710938 324.925781 127.316406 324.625 127.957031 C 324.324219 128.597656 324.089844 129.261719 323.921875 129.949219 C 323.753906 130.636719 323.652344 131.332031 323.621094 132.039062 C 323.589844 132.746094 323.625 133.449219 323.734375 134.148438 C 323.839844 134.847656 324.015625 135.53125 324.253906 136.195312 C 327.203125 144.234375 329.417969 152.46875 330.90625 160.898438 C 332.394531 169.328125 333.128906 177.824219 333.113281 186.382812 C 333.113281 189.207031 333.035156 192.027344 332.875 194.847656 C 332.71875 197.667969 332.476562 200.480469 332.15625 203.285156 C 331.832031 206.089844 331.429688 208.882812 330.949219 211.667969 C 330.464844 214.449219 329.902344 217.214844 329.261719 219.964844 C 328.621094 222.714844 327.898438 225.445312 327.101562 228.152344 C 326.300781 230.859375 325.425781 233.542969 324.472656 236.203125 C 323.519531 238.859375 322.492188 241.488281 321.386719 244.085938 C 320.28125 246.6875 319.101562 249.25 317.851562 251.78125 C 316.597656 254.3125 315.273438 256.804688 313.878906 259.261719 C 312.480469 261.714844 311.015625 264.128906 309.480469 266.496094 C 307.945312 268.867188 306.34375 271.191406 304.675781 273.46875 C 303.007812 275.75 301.273438 277.976562 299.476562 280.15625 C 297.679688 282.332031 295.824219 284.457031 293.902344 286.53125 C 291.984375 288.601562 290.007812 290.613281 287.972656 292.574219 C 285.9375 294.53125 283.847656 296.425781 281.703125 298.265625 C 279.558594 300.101562 277.363281 301.875 275.113281 303.585938 C 272.867188 305.296875 270.574219 306.941406 268.234375 308.519531 C 265.890625 310.097656 263.507812 311.609375 261.078125 313.050781 C 258.648438 314.492188 256.183594 315.863281 253.675781 317.160156 C 251.167969 318.460938 248.625 319.6875 246.046875 320.839844 C 243.46875 321.992188 240.859375 323.070312 238.222656 324.070312 C 235.582031 325.074219 232.914062 326 230.222656 326.847656 C 227.527344 327.699219 224.8125 328.46875 222.074219 329.160156 C 219.339844 329.855469 216.582031 330.46875 213.808594 331.003906 C 211.039062 331.535156 208.25 331.988281 205.453125 332.363281 C 202.652344 332.738281 199.847656 333.03125 197.03125 333.242188 C 194.214844 333.453125 191.394531 333.585938 188.570312 333.632812 C 185.746094 333.683594 182.925781 333.652344 180.105469 333.539062 C 177.28125 333.425781 174.464844 333.234375 171.65625 332.957031 C 168.84375 332.683594 166.046875 332.328125 163.253906 331.890625 C 160.464844 331.453125 157.691406 330.9375 154.929688 330.34375 C 152.167969 329.746094 149.429688 329.070312 146.707031 328.316406 C 143.988281 327.5625 141.289062 326.734375 138.617188 325.824219 C 135.941406 324.914062 133.296875 323.929688 130.679688 322.867188 C 128.0625 321.804688 125.480469 320.671875 122.929688 319.460938 C 120.375 318.25 117.863281 316.96875 115.386719 315.613281 C 112.90625 314.257812 110.472656 312.832031 108.074219 311.335938 C 105.679688 309.839844 103.328125 308.277344 101.023438 306.648438 C 98.71875 305.015625 96.460938 303.320312 94.253906 301.5625 C 92.046875 299.800781 89.890625 297.976562 87.789062 296.09375 C 85.683594 294.207031 83.636719 292.265625 81.648438 290.261719 C 79.65625 288.257812 77.726562 286.203125 75.851562 284.085938 C 73.980469 281.972656 72.171875 279.808594 70.421875 277.589844 C 68.675781 275.371094 66.992188 273.105469 65.375 270.789062 C 63.757812 268.476562 62.207031 266.117188 60.726562 263.710938 C 59.246094 261.308594 57.835938 258.863281 56.492188 256.378906 C 55.152344 253.894531 53.886719 251.371094 52.691406 248.8125 C 51.496094 246.253906 50.375 243.664062 49.328125 241.042969 C 48.28125 238.417969 47.3125 235.765625 46.417969 233.089844 C 45.523438 230.410156 44.707031 227.707031 43.96875 224.980469 C 43.230469 222.257812 42.574219 219.511719 41.992188 216.75 C 41.414062 213.984375 40.914062 211.207031 40.492188 208.414062 C 40.074219 205.621094 39.734375 202.820312 39.476562 200.007812 C 39.214844 197.195312 39.039062 194.378906 38.941406 191.554688 C 38.847656 188.734375 38.832031 185.910156 38.898438 183.089844 C 38.960938 180.265625 39.109375 177.445312 39.339844 174.632812 C 39.566406 171.816406 39.875 169.011719 40.265625 166.214844 C 40.65625 163.417969 41.125 160.636719 41.675781 157.867188 C 42.226562 155.09375 42.855469 152.34375 43.5625 149.609375 C 44.273438 146.878906 45.058594 144.167969 45.921875 141.476562 C 46.789062 138.789062 47.730469 136.128906 48.746094 133.496094 C 49.765625 130.859375 50.859375 128.257812 52.027344 125.6875 C 53.195312 123.117188 54.433594 120.582031 55.75 118.082031 C 57.0625 115.582031 58.445312 113.121094 59.902344 110.703125 C 61.355469 108.28125 62.882812 105.90625 64.472656 103.574219 C 66.066406 101.242188 67.722656 98.957031 69.445312 96.71875 C 71.171875 94.484375 72.957031 92.296875 74.808594 90.164062 C 76.65625 88.03125 78.566406 85.953125 80.535156 83.929688 C 82.503906 81.902344 84.53125 79.9375 86.613281 78.03125 C 88.695312 76.125 90.832031 74.277344 93.019531 72.496094 C 95.207031 70.710938 97.445312 68.988281 99.734375 67.335938 C 102.023438 65.679688 104.355469 64.089844 106.734375 62.570312 C 109.113281 61.050781 111.535156 59.597656 113.996094 58.214844 C 116.460938 56.835938 118.960938 55.523438 121.5 54.285156 C 124.035156 53.050781 126.609375 51.886719 129.214844 50.796875 C 131.820312 49.707031 134.453125 48.691406 137.117188 47.753906 C 139.78125 46.816406 142.46875 45.957031 145.179688 45.171875 C 147.894531 44.390625 150.628906 43.6875 153.382812 43.058594 C 156.136719 42.433594 158.902344 41.886719 161.6875 41.421875 C 164.472656 40.957031 167.269531 40.570312 170.078125 40.265625 C 172.886719 39.960938 175.699219 39.734375 178.519531 39.589844 C 181.339844 39.449219 184.160156 39.386719 186.984375 39.40625 C 189.808594 39.425781 192.628906 39.523438 195.449219 39.707031 C 198.265625 39.886719 201.074219 40.152344 203.878906 40.496094 C 206.683594 40.835938 209.472656 41.261719 212.25 41.765625 C 215.03125 42.269531 217.789062 42.855469 220.535156 43.515625 C 223.28125 44.179688 226.003906 44.921875 228.707031 45.742188 C 231.410156 46.5625 234.085938 47.457031 236.734375 48.433594 C 239.386719 49.40625 242.007812 50.457031 244.597656 51.582031 C 247.1875 52.707031 249.742188 53.90625 252.261719 55.175781 C 254.785156 56.449219 257.265625 57.792969 259.710938 59.207031 C 262.152344 60.621094 264.554688 62.105469 266.914062 63.660156 C 269.269531 65.214844 271.582031 66.832031 273.847656 68.519531 C 276.113281 70.207031 278.328125 71.957031 280.492188 73.769531 C 282.65625 75.582031 284.765625 77.457031 286.824219 79.394531 C 288.878906 81.328125 290.878906 83.320312 292.820312 85.371094 L 186.460938 172.179688 L 153.75 142.261719 C 153.28125 141.828125 152.773438 141.4375 152.234375 141.09375 C 151.691406 140.75 151.125 140.457031 150.53125 140.214844 C 149.941406 139.976562 149.332031 139.789062 148.703125 139.65625 C 148.078125 139.523438 147.445312 139.449219 146.804688 139.429688 C 146.164062 139.414062 145.527344 139.453125 144.894531 139.546875 C 144.261719 139.644531 143.640625 139.796875 143.035156 140.003906 C 142.429688 140.210938 141.847656 140.472656 141.289062 140.785156 C 140.730469 141.09375 140.203125 141.453125 139.707031 141.863281 C 139.207031 142.265625 138.75 142.710938 138.328125 143.199219 C 137.910156 143.683594 137.539062 144.203125 137.210938 144.757812 C 136.882812 145.308594 136.609375 145.886719 136.386719 146.492188 C 136.164062 147.09375 135.996094 147.710938 135.882812 148.34375 C 135.769531 148.972656 135.714844 149.613281 135.714844 150.253906 C 135.71875 150.894531 135.777344 151.535156 135.890625 152.164062 C 136.007812 152.796875 136.175781 153.414062 136.402344 154.015625 C 136.628906 154.617188 136.90625 155.191406 137.234375 155.746094 L 177.128906 222.046875 C 177.554688 222.753906 178.054688 223.402344 178.628906 223.992188 C 179.199219 224.585938 179.832031 225.105469 180.523438 225.554688 C 181.214844 226.003906 181.945312 226.371094 182.71875 226.652344 C 183.492188 226.9375 184.289062 227.128906 185.105469 227.234375 L 186.382812 227.234375 C 187.882812 227.273438 189.328125 227.007812 190.714844 226.4375 C 192.105469 225.867188 193.320312 225.042969 194.363281 223.960938 L 343.484375 72.367188 C 344.007812 71.890625 344.480469 71.367188 344.898438 70.796875 C 345.320312 70.226562 345.679688 69.621094 345.980469 68.980469 C 346.28125 68.339844 346.519531 67.675781 346.6875 66.988281 C 346.859375 66.300781 346.960938 65.605469 346.992188 64.898438 C 347.027344 64.191406 346.992188 63.488281 346.886719 62.785156 C 346.78125 62.085938 346.605469 61.402344 346.367188 60.738281 C 346.128906 60.070312 345.824219 59.433594 345.460938 58.828125 C 345.09375 58.222656 344.671875 57.65625 344.195312 57.132812 C 343.71875 56.609375 343.195312 56.136719 342.628906 55.714844 C 342.058594 55.296875 341.453125 54.933594 340.8125 54.632812 C 340.171875 54.332031 339.507812 54.09375 338.820312 53.925781 C 338.132812 53.753906 337.4375 53.652344 336.730469 53.617188 C 336.023438 53.585938 335.320312 53.621094 334.617188 53.726562 C 333.917969 53.828125 333.234375 54.003906 332.570312 54.242188 C 331.902344 54.480469 331.265625 54.785156 330.660156 55.148438 C 330.050781 55.511719 329.488281 55.933594 328.960938 56.410156 L 310.132812 71.808594 C 307.796875 69.308594 305.386719 66.878906 302.902344 64.527344 C 300.417969 62.175781 297.863281 59.898438 295.238281 57.703125 C 292.613281 55.507812 289.925781 53.390625 287.171875 51.359375 C 284.417969 49.328125 281.605469 47.382812 278.730469 45.523438 C 275.859375 43.664062 272.929688 41.894531 269.949219 40.214844 C 266.96875 38.53125 263.9375 36.945312 260.859375 35.453125 C 257.78125 33.957031 254.660156 32.558594 251.496094 31.253906 C 248.328125 29.953125 245.128906 28.746094 241.890625 27.640625 C 238.652344 26.53125 235.382812 25.523438 232.082031 24.617188 C 228.78125 23.710938 225.457031 22.90625 222.109375 22.203125 C 218.761719 21.5 215.390625 20.902344 212.007812 20.40625 C 208.621094 19.90625 205.222656 19.515625 201.8125 19.226562 C 198.402344 18.9375 194.988281 18.753906 191.566406 18.675781 C 188.144531 18.597656 184.722656 18.621094 181.304688 18.753906 C 177.882812 18.882812 174.472656 19.117188 171.066406 19.457031 C 167.660156 19.796875 164.269531 20.242188 160.890625 20.789062 C 157.511719 21.335938 154.152344 21.984375 150.816406 22.738281 C 147.476562 23.492188 144.164062 24.347656 140.878906 25.300781 C 137.59375 26.257812 134.339844 27.3125 131.117188 28.46875 C 127.898438 29.625 124.714844 30.878906 121.570312 32.230469 C 118.425781 33.578125 115.324219 35.023438 112.269531 36.566406 C 109.210938 38.105469 106.207031 39.738281 103.25 41.460938 C 100.292969 43.1875 97.394531 45 94.550781 46.902344 C 91.703125 48.804688 88.921875 50.792969 86.199219 52.867188 C 83.476562 54.9375 80.816406 57.09375 78.226562 59.328125 C 75.636719 61.566406 73.117188 63.878906 70.667969 66.269531 C 68.21875 68.660156 65.84375 71.121094 63.546875 73.65625 C 61.246094 76.191406 59.027344 78.796875 56.890625 81.46875 C 54.75 84.140625 52.695312 86.875 50.722656 89.671875 C 48.753906 92.46875 46.871094 95.324219 45.074219 98.238281 C 43.277344 101.148438 41.570312 104.113281 39.957031 107.132812 C 38.34375 110.148438 36.820312 113.214844 35.394531 116.324219 C 33.96875 119.433594 32.636719 122.585938 31.402344 125.777344 C 30.167969 128.972656 29.035156 132.199219 28 135.460938 C 26.960938 138.722656 26.027344 142.011719 25.191406 145.332031 C 24.359375 148.648438 23.625 151.992188 22.996094 155.355469 C 22.367188 158.71875 21.839844 162.097656 21.417969 165.496094 C 20.996094 168.890625 20.679688 172.296875 20.464844 175.710938 C 20.25 179.128906 20.140625 182.546875 20.136719 185.96875 C 20.132812 189.390625 20.234375 192.808594 20.4375 196.226562 C 20.644531 199.640625 20.953125 203.050781 21.367188 206.445312 C 21.78125 209.84375 22.296875 213.222656 22.917969 216.589844 C 23.539062 219.957031 24.261719 223.296875 25.089844 226.621094 C 25.914062 229.941406 26.839844 233.234375 27.871094 236.496094 C 28.898438 239.761719 30.023438 242.992188 31.25 246.1875 C 32.476562 249.382812 33.796875 252.539062 35.214844 255.652344 C 36.632812 258.765625 38.148438 261.832031 39.753906 264.855469 C 41.359375 267.878906 43.058594 270.847656 44.847656 273.765625 C 46.636719 276.679688 48.511719 279.542969 50.476562 282.34375 C 52.441406 285.148438 54.488281 287.886719 56.621094 290.5625 C 58.753906 293.242188 60.964844 295.851562 63.257812 298.390625 C 65.546875 300.933594 67.917969 303.402344 70.359375 305.796875 C 72.800781 308.195312 75.316406 310.515625 77.902344 312.757812 C 80.488281 315 83.136719 317.160156 85.855469 319.242188 C 88.574219 321.320312 91.351562 323.316406 94.191406 325.226562 C 97.03125 327.132812 99.929688 328.957031 102.878906 330.6875 C 105.832031 332.417969 108.832031 334.058594 111.886719 335.609375 C 114.9375 337.15625 118.035156 338.609375 121.175781 339.96875 C 124.316406 341.328125 127.496094 342.589844 130.714844 343.753906 C 133.933594 344.914062 137.183594 345.980469 140.464844 346.945312 C 143.75 347.910156 147.058594 348.773438 150.394531 349.535156 C 153.734375 350.296875 157.089844 350.953125 160.464844 351.511719 C 163.84375 352.066406 167.234375 352.519531 170.636719 352.867188 C 174.042969 353.214844 177.453125 353.460938 180.875 353.597656 C 184.292969 353.738281 187.714844 353.773438 191.136719 353.703125 C 194.558594 353.632812 197.972656 353.457031 201.382812 353.175781 C 204.792969 352.898438 208.195312 352.511719 211.582031 352.023438 C 214.96875 351.535156 218.335938 350.945312 221.6875 350.25 C 225.039062 349.558594 228.367188 348.761719 231.667969 347.863281 C 234.96875 346.964844 238.242188 345.964844 241.484375 344.867188 C 244.722656 343.769531 247.929688 342.570312 251.097656 341.277344 C 254.265625 339.980469 257.390625 338.589844 260.472656 337.105469 C 263.554688 335.617188 266.589844 334.039062 269.574219 332.363281 C 272.558594 330.691406 275.492188 328.929688 278.371094 327.078125 C 281.246094 325.226562 284.066406 323.289062 286.824219 321.261719 C 289.582031 319.238281 292.277344 317.128906 294.90625 314.941406 C 297.539062 312.75 300.097656 310.480469 302.589844 308.136719 C 305.078125 305.789062 307.496094 303.367188 309.839844 300.871094 C 312.179688 298.378906 314.445312 295.8125 316.632812 293.179688 C 318.816406 290.546875 320.917969 287.847656 322.9375 285.085938 C 324.960938 282.324219 326.894531 279.5 328.738281 276.621094 C 330.585938 273.738281 332.34375 270.804688 334.011719 267.816406 C 335.679688 264.828125 337.253906 261.792969 338.734375 258.707031 C 340.214844 255.621094 341.601562 252.492188 342.890625 249.324219 C 344.179688 246.152344 345.371094 242.945312 346.464844 239.703125 C 347.558594 236.460938 348.550781 233.1875 349.445312 229.882812 C 350.335938 226.578125 351.125 223.253906 351.816406 219.898438 C 352.503906 216.546875 353.089844 213.175781 353.570312 209.789062 C 354.054688 206.402344 354.433594 203 354.707031 199.589844 C 354.980469 196.179688 355.148438 192.761719 355.214844 189.339844 C 355.277344 185.917969 355.238281 182.5 355.09375 179.078125 C 354.945312 175.660156 354.699219 172.25 354.34375 168.84375 C 353.988281 165.441406 353.53125 162.050781 352.96875 158.675781 C 352.40625 155.300781 351.742188 151.945312 350.976562 148.609375 C 350.207031 145.273438 349.339844 141.964844 348.367188 138.683594 C 347.398438 135.402344 346.328125 132.152344 345.160156 128.9375 Z M 344.519531 128.855469 "
     fill-opacity="1"
     fill-rule="nonzero"
     id="path5"
     style="fill:url(#linearGradient10)" />
</svg>
