<?xml version="1.0" encoding="UTF-8" standalone="no"?>
<svg
   width="500"
   zoomAndPan="magnify"
   viewBox="0 0 375 374.99999"
   height="500"
   preserveAspectRatio="xMidYMid"
   version="1.0"
   id="svg2"
   xmlns:xlink="http://www.w3.org/1999/xlink"
   xmlns="http://www.w3.org/2000/svg"
   xmlns:svg="http://www.w3.org/2000/svg">
  <defs
     id="defs2">
    <linearGradient
       id="linearGradient4">
      <stop
         style="stop-color:#00a0ff;stop-opacity:1;"
         offset="0"
         id="stop4" />
      <stop
         style="stop-color:#00ffa0;stop-opacity:1;"
         offset="1"
         id="stop5" />
    </linearGradient>
    <linearGradient
       id="linearGradient2">
      <stop
         style="stop-color:#00a0ff;stop-opacity:1;"
         offset="0"
         id="stop2" />
      <stop
         style="stop-color:#00ffa0;stop-opacity:1;"
         offset="1"
         id="stop3" />
    </linearGradient>
    <linearGradient
       xlink:href="#linearGradient2"
       id="linearGradient3"
       x1="1.3531754"
       y1="375.00555"
       x2="374.38239"
       y2="1.8657591"
       gradientUnits="userSpaceOnUse" />
    <linearGradient
       xlink:href="#linearGradient4"
       id="linearGradient5"
       x1="1.1422262"
       y1="373.88275"
       x2="374.55722"
       y2="0.36870876"
       gradientUnits="userSpaceOnUse" />
  </defs>
  <g
     id="g2">
    <path
       fill="#000000"
       d="M 177.89453,45.578125 C 177.89453,13.367188 147.20703,0 130.77734,0 120.91406,0 101.32031,6.65625 90.59375,20.941406 85.328125,27.957031 82.960938,35.9375 83.578125,44.375 73.800781,42.949219 57.910156,42.605469 48.238281,58.144531 c -6.960937,11.1875 -7.679687,20.402344 -6.929687,26.414063 -10.148438,1.246094 -28.253906,6.21875 -35.238282,25.585936 -5.257812,14.55078 -4.339843,29.5625 0.121094,41.51563 0.00781,0.0273 0.00781,0.0547 0.011719,0.082 1,3.36328 2.78125,6.98437 5.363281,10.51562 0.03516,0.0469 0.07031,0.0937 0.105469,0.14453 0.183594,0.25 0.359375,0.5 0.550781,0.7461 1.058594,1.47265 2.167969,2.85937 3.347656,4.10156 -4.605468,3.74219 -7.25,9.15625 -7.867187,19.08594 -0.695313,11.15234 4.144531,24.60937 12.582031,31.53515 -5.757812,5.87891 -10.828125,14.72266 -9.578125,33.32813 1.140625,11.46094 7.558594,23.08594 16.746094,30.35156 4.835937,3.82031 10.207031,6.13672 15.648437,6.99219 0.355469,0.11328 0.726563,0.19531 1.109376,0.23437 0.128906,0.0117 0.28125,0.008 0.410156,0.0195 0.15625,0.0156 0.3125,0.0664 0.46875,0.0781 0.925781,5.37891 3.902344,11.38672 7.375,15.89453 5.699218,7.39063 13.015625,11.66406 20.960937,12.35938 2.335938,9.1289 7.570313,22.8125 22.984375,24.67187 1.199219,8.65234 4.187504,15.82813 8.984374,21.40234 5.98828,6.95313 14.51172,10.9961 24.64453,11.69141 1.02344,0.0703 2.04688,0.10547 3.07422,0.10547 12.11719,0 24.63281,-4.82031 33.28906,-12.94922 7.46094,-7.01172 11.53516,-16.04687 11.47266,-25.40234 v -200.4296 c 0,-0.004 0,-0.004 0,-0.008 V 46.101562 c 0.004,-0.179687 0.0195,-0.34375 0.0195,-0.523437 z m -10.82422,77.542965 c -4.46484,-2.60546 -9.90625,-4.54687 -15.53906,-5.30078 -15.21484,-2.03125 -28.16797,4.91407 -35.65625,19.23438 -8.56641,18.05078 -1.79297,31.65234 3.00781,38.15625 6.22657,8.43359 15.71875,14.05468 23.36328,14.05468 0.70313,0 1.39063,-0.0508 2.0625,-0.14453 2.94922,-0.43359 4.9961,-3.17578 4.56641,-6.1289 -0.42969,-2.95313 -3.17969,-5.01563 -6.125,-4.57032 -2.59375,0.37891 -9.91797,-2.51171 -15.17578,-9.6289 -4.10938,-5.57031 -7.77734,-14.78906 -2.03125,-26.91016 6.51562,-12.45312 16.46875,-14.19922 23.66797,-13.45312 10.08593,1.03125 16.9414,6.71875 17.85937,8.79687 v 199.45703 c 0.0547,8.13672 -4.35547,14 -8.0664,17.48828 -7.26954,6.83204 -18.08985,10.6211 -28.21875,9.94141 -5.01563,-0.34375 -12.06641,-2.00781 -17.19922,-7.96484 -5.44141,-6.32032 -7.77344,-16.45313 -6.76563,-29.05469 0.73438,-5.77734 7.94532,-17.23828 17.57813,-22.05859 5.52734,-2.76172 10.80859,-2.75782 15.6875,0.0156 2.59375,1.48047 5.89453,0.56641 7.36718,-2.02734 1.47657,-2.58985 0.56641,-5.89063 -2.02734,-7.36719 -8.09375,-4.60547 -17.03516,-4.70313 -25.86328,-0.28906 -0.19141,0.0976 -0.36719,0.23437 -0.55469,0.33203 -2.33203,-2.38672 -5.82812,-4.02344 -10.21484,-4.52344 -7.39063,-0.84375 -15.539064,1.66016 -16.871095,8.08203 -0.605469,2.92188 1.273437,5.78125 4.195313,6.38672 2.5625,0.53516 5.082032,-0.85547 6.070312,-3.17187 1.03516,-0.47657 3.69141,-0.94532 6.39063,-0.39844 0.46875,0.0937 0.86718,0.20703 1.20312,0.32812 -7.51953,7.09375 -12.8125,16.50782 -13.707031,23.57813 -0.128907,1.61328 -0.183594,3.16406 -0.222657,4.70703 C 87.71875,328.60154 85.144531,320.33982 82.992188,310.5742 l -1.023438,-4.64844 -4.738281,0.42578 c -6.882813,0.63281 -11.964844,-3.30469 -14.988281,-6.71094 -3.441407,-3.88281 -5.367188,-8.25781 -6.1875,-11.23828 15.203124,-2.23828 33.949218,-11.69922 38.898437,-37.51953 1.683594,-0.60547 3.371094,-1.33203 5.062505,-2.35937 0.0898,-0.0547 0.16015,-0.125 0.24609,-0.1836 6.17969,-3.45312 12.64453,-9.05078 16.98828,-16.23437 5.06641,-8.375 6.40625,-17.38672 3.87109,-26.04297 -0.84375,-2.86719 -3.84375,-4.50781 -6.70703,-3.66797 -2.86328,0.83984 -4.5039,3.84375 -3.66406,6.70703 1.68359,5.75391 0.76172,11.61328 -2.75,17.41016 -3.50781,5.80469 -9.121094,10.49609 -14.058594,13 -0.125,0.0703 -0.253906,0.12109 -0.378906,0.1914 -1.589844,0.77344 -3.105469,1.32813 -4.441406,1.59375 -11.554688,2.19532 -23.117188,-8.85937 -23.25,-8.98828 -2.125,-2.07812 -5.539063,-2.05078 -7.632813,0.0742 -2.089843,2.12891 -2.058593,5.55469 0.06641,7.64453 0.625,0.61719 11.558593,11.16016 25.199218,12.35547 -4.417968,16.1211 -15.863281,22.23047 -25.101562,24.48047 l -8.605469,1.16016 c -0.53125,0.0703 -1.042969,0.0742 -1.5625,0.0976 -1.21875,0.008 -2.113281,-0.0351 -2.59375,-0.0703 -0.05078,-0.008 -0.105469,-0.008 -0.15625,-0.0156 -0.08203,-0.004 -0.15625,-0.0117 -0.195313,-0.0156 -0.01562,0 -0.02734,0 -0.04297,0 -4.59375,-0.58594 -8.445313,-2.85937 -11.09375,-4.94922 -6.859375,-5.42578 -11.84375,-14.42969 -12.675782,-22.76953 -1.253906,-18.66016 4.730469,-23.63672 11.070313,-28.91016 l 8.894531,-7.42187 -10.542968,-2.47266 c -6.804688,-1.59765 -13.066407,-13.95312 -12.410157,-24.48828 0.542969,-8.75 2.515625,-11.05469 6.269531,-12.96875 5.589844,3.29688 12.433594,5.84375 20.679688,6.97656 1.902344,0.26172 3.753906,0.38282 5.554688,0.38282 6.210937,0 11.78125,-1.46875 16.652343,-3.59375 2.472657,1.47265 7.59375,5.83593 7.289063,11.76953 -0.460938,8.96875 -6.746094,15.77344 -6.902344,15.9375 -2.054688,2.14844 -1.988281,5.55859 0.15625,7.6289 1.046875,1.00782 2.398438,1.51172 3.75,1.51172 1.414062,0 2.828125,-0.55078 3.886719,-1.65234 0.375,-0.39063 9.226562,-9.71484 9.902343,-22.87109 0.386719,-7.57032 -3.472656,-13.89454 -8.054687,-18.16016 6.972656,-5.16406 11.035156,-10.61719 11.371094,-11.08203 1.753906,-2.41406 1.21875,-5.79688 -1.195313,-7.55078 -2.417968,-1.75391 -5.796875,-1.21485 -7.550781,1.19922 -0.08594,0.12109 -5.90625,7.94531 -15.410156,12.62109 -0.0039,0 -0.0039,0 -0.0039,0 -0.0039,0.004 -0.0039,0.004 -0.0078,0.004 -5.050781,2.48437 -11.121094,4.08984 -17.96875,3.14843 -5.492188,-0.75781 -10.097656,-2.26562 -13.96875,-4.16797 l -3.792969,-2.11328 c -3.742187,-2.40625 -6.574219,-5.18359 -8.625,-7.89062 -6.429687,-9.5586 -10.199219,-25.97266 -4.289062,-42.32422 5.917969,-16.398438 23.648437,-18.550781 29.703125,-18.808594 l 15.984375,16.507814 c -3.460938,2.00391 -7.597657,3.22266 -12.519531,3.44922 -2.980469,0.13672 -5.289063,2.66406 -5.148438,5.64844 0.132812,2.89453 2.523438,5.15625 5.390625,5.15625 0.08594,0 0.167969,-0.004 0.253906,-0.008 10.554688,-0.48437 18.980469,-4.15234 25.042969,-10.90234 10.570312,-11.76953 9.667969,-28.570314 9.625,-29.281251 -0.183594,-2.980469 -2.730469,-5.226563 -5.722656,-5.0625 -2.980469,0.183593 -5.246094,2.746093 -5.0625,5.726562 0.0039,0.109375 0.414062,9.6875 -4.195313,17.648439 L 52.765625,86.523438 c -0.800781,-2.09375 -3.054687,-10.296876 4.644531,-22.671876 6.898438,-11.085937 18.441406,-9.984374 28.71875,-8.085937 0.648438,0.121094 1.25,0.230469 1.808594,0.328125 l 13.1875,11.332031 c 1.01953,0.875 2.26953,1.304688 3.51953,1.304688 1.51953,0 3.03125,-0.640625 4.09766,-1.882813 1.94531,-2.261718 1.6875,-5.675781 -0.57422,-7.621094 L 95.089844,47.988281 c -1.792969,-7.542969 -0.429688,-14.457031 4.144531,-20.554687 8.312505,-11.070313 24.703125,-16.625 31.542965,-16.625 9.6836,0 36.23047,8.222656 36.30469,34.667968 0,0.03125 -0.008,0.05859 -0.008,0.08984 v 0.398438 c -0.17578,23.726562 -15.57813,29.335937 -17.45313,29.914062 -2.40625,-0.136718 -4.47265,1.390625 -5.23828,3.691406 -0.94531,2.832032 0.58594,5.894532 3.41406,6.839844 4.83985,1.601563 12.78516,-3.953125 13.67579,-4.59375 1.65625,-1.195312 3.62109,-2.859375 5.60156,-5.042968 v 46.347656 z m 0,0"
       fill-opacity="1"
       fill-rule="nonzero"
       id="path1"
       style="fill:url(#linearGradient3)" />
    <path
       fill="#000000"
       d="m 365.72656,186.42969 -0.0273,-0.3711 c -1.09375,-9.62109 -4.7461,-15.17968 -9.15625,-18.76953 11.32812,-11.85547 17.52344,-35.05469 9.54687,-57.14453 C 359.10156,90.777344 341,85.804688 330.84375,84.558594 331.59766,78.546875 330.87891,69.328125 323.91406,58.144531 314.28125,42.65625 298.45703,42.945312 288.67969,44.359375 289.57422,35.160156 287.23437,26.625 281.76172,19.335938 271.78516,6.050781 253.83594,0 241.37891,0 c -16.42579,0 -47.11719,13.367188 -47.11719,45.578125 0,0.160156 0.0156,0.304687 0.0156,0.464844 V 336.61328 c -0.0586,9.39453 4.01563,18.42578 11.47657,25.4375 8.65625,8.13281 21.17187,12.94922 33.28515,12.94922 1.02735,0 2.05078,-0.0352 3.07422,-0.10547 18.53125,-1.26953 30.81641,-13.53125 33.61328,-33.09375 15.35938,-1.83984 20.625,-15.42969 22.97266,-24.55469 7.83594,-0.30468 14.78125,-3.22265 19.89453,-8.43359 5.16406,-5.26563 8.21094,-12.69141 8.57812,-20.58203 20.39063,-2.9375 32.57032,-14.91406 34.48438,-34.14063 1.44531,-14.59765 -2.04688,-26.77343 -10.38281,-36.30078 8.0625,-5.63672 15.19922,-14.61328 14.45312,-31.35937 z M 214.77734,343.83984 c -2.7539,0 -4.98828,-2.23437 -4.98828,-4.98828 0,-2.75 2.23438,-4.98437 4.98828,-4.98437 2.75,0 4.98438,2.23437 4.98438,4.98437 0,2.75391 -2.23438,4.98828 -4.98438,4.98828 z m -2.37109,4.41016 v 5.17578 c -2.46484,-2.48047 -5.05078,-5.95703 -6.39063,-10.4375 1.23047,2.59375 3.5586,4.54297 6.39063,5.26172 z m 127.58594,-136.28516 -7.19141,3.7461 6.22656,5.19922 c 5.96875,4.97656 13.69532,13.72656 11.875,32.11328 -1.55468,15.57422 -11.24609,23.73828 -29.6289,24.96093 l -5.625,0.375 0.61328,5.60547 c 0.72656,6.64453 -1.28516,13.10157 -5.38281,17.27735 -3.03516,3.09375 -7.08985,4.84375 -11.89454,5.15625 l -1.70312,-56.39063 15.6875,-14.25 c 2,1.36328 4.41406,2.16016 7.01172,2.16016 6.89844,0 12.51172,-5.61328 12.51172,-12.51172 0,-6.89844 -5.61328,-12.51172 -12.51172,-12.51172 -6.89453,0 -12.50781,5.61328 -12.50781,12.51172 0,2.58984 0.79296,5 2.14843,7 l -17.13672,15.5625 1.76563,58.32031 -4.06641,-0.36719 -1.02343,4.65235 c -2.375,10.79297 -5.28907,19.75 -15.61329,20.5664 v -48.79296 l -6.84375,-6.42188 v -24.78516 l 15.03516,-14.82812 c 1.57813,1.10547 3.48828,1.76953 5.55859,1.76953 5.35547,0 9.71875,-4.36328 9.71875,-9.72266 0,-5.35937 -4.36328,-9.72265 -9.71875,-9.72265 -5.35937,0 -9.72265,4.36328 -9.72265,9.72265 0,1.57032 0.41015,3.03516 1.07812,4.35157 l -16.68359,16.45312 v 22.31641 l -8.95703,-8.40235 v -33.83593 c 4.21094,-1.0625 7.35156,-4.85547 7.35156,-9.39453 0,-5.35938 -4.35937,-9.72266 -9.71875,-9.72266 -5.35547,0 -9.71875,4.36328 -9.71875,9.72266 0,4.53906 3.14063,8.33203 7.35156,9.39453 V 265.125 l 20.53516,19.26953 v 47.16797 c -0.49219,0.19922 -0.94531,0.47656 -1.35547,0.81641 -0.0781,0.0625 -0.16797,0.11718 -0.24219,0.18359 -0.0195,0.0195 -0.0351,0.043 -0.0547,0.0586 -0.74219,0.69532 -1.28907,1.59766 -1.54688,2.625 -0.0273,0.11328 -0.0352,0.23438 -0.0547,0.34766 -0.043,0.22656 -0.0937,0.44531 -0.10937,0.67969 -0.71875,12.07031 -5.27344,20.53125 -13.0625,24.78125 l -9.51172,-8.78516 v -23.29297 c 4.21094,-1.0625 7.35156,-4.85547 7.35156,-9.39453 0,-5.35937 -4.36328,-9.72266 -9.71875,-9.72266 -5.35937,0 -9.72265,4.36329 -9.72265,9.72266 0,4.53906 3.14062,8.32813 7.35156,9.39453 v 25.3711 l 9.40625,8.67968 c -1.92188,0.55469 -3.97266,0.9336 -6.17578,1.08594 -8.40625,0.5625 -17.28125,-1.99609 -24.22657,-6.78906 V 348.25 c 4.21094,-1.06641 7.35157,-4.85938 7.35157,-9.39844 0,-5.35547 -4.35938,-9.72265 -9.71875,-9.72265 -5.01563,0 -9.10938,3.83984 -9.61719,8.72265 -0.0195,-0.40234 -0.0781,-0.78906 -0.0742,-1.20703 v -46.17969 l 4.30469,4.66407 h 26.45703 c 1.10937,4.39453 5.0625,7.67187 9.79687,7.67187 5.59375,0 10.14063,-4.55078 10.14063,-10.14062 0,-5.58985 -4.54688,-10.14063 -10.14063,-10.14063 -4.73437,0 -8.6875,3.27734 -9.79687,7.66797 h -24.29688 l -6.46484,-7.00391 v -29.91406 h 9.01563 c 1.10546,4.86719 5.44921,8.51953 10.64062,8.51953 6.02734,0 10.92969,-4.90625 10.92969,-10.93359 0,-6.03125 -4.90235,-10.9375 -10.92969,-10.9375 -5.19531,0 -9.53516,3.65625 -10.64062,8.52344 h -9.01563 v -70.90235 c 5.5,-0.0391 10.72266,-0.043 16.20313,-0.0469 v 23.89843 c -3.08985,0.69922 -5.40625,3.45704 -5.40625,6.75782 0,3.82422 3.10937,6.93359 6.9375,6.93359 3.82421,0 6.93359,-3.10937 6.93359,-6.93359 0,-3.30078 -2.31641,-6.0586 -5.40625,-6.75782 v -22.85546 c 5.57031,5.60546 10.99219,11.21093 16.43359,16.85156 l 2.10547,2.18359 2.20313,-2.125 -2.10157,-2.1875 c -3.05468,-3.16015 -6.09765,-6.3125 -9.16406,-9.46094 h 23.87891 c 0.70312,3.08985 3.45703,5.40625 6.7539,5.40625 3.82813,0 6.9375,-3.10937 6.9375,-6.9375 0,-3.82812 -3.10937,-6.9414 -6.9375,-6.9414 -3.29687,0 -6.05078,2.32031 -6.7539,5.41015 h -26.89453 c -1.91797,-1.95312 -3.82032,-3.90625 -5.76953,-5.85937 l -0.44922,-0.44531 h -0.63282 c -6.5,0 -12.47656,0 -18.87109,0.043 v -7.51954 c 17.61719,-0.14453 35.27734,-0.0937 52.61328,0.16016 0.69531,3.09766 3.45313,5.42578 6.75781,5.42578 3.82813,0 6.9375,-3.11328 6.9375,-6.9414 0,-3.82422 -3.10937,-6.9375 -6.9375,-6.9375 -3.28906,0 -6.03906,2.30859 -6.74609,5.38671 -17.34375,-0.25 -35.00781,-0.29687 -52.625,-0.15625 v -13.22656 l 4.40234,4.76563 h 16.41797 c 0.6875,2.72656 3.14063,4.76172 6.07813,4.76172 3.46875,0 6.28906,-2.82422 6.28906,-6.29297 0,-3.46875 -2.82031,-6.29297 -6.28906,-6.29297 -2.9375,0 -5.39063,2.03125 -6.07813,4.76172 h -15.07422 l -5.74609,-6.22266 v -17.17187 l 7.60156,-3.58594 29.90235,11.11328 39.91015,-18.83594 c 1.02344,1.3125 2.38672,2.32813 3.99219,2.90625 0.98047,0.35157 1.99609,0.52735 3.01172,0.52735 1.29297,0 2.58594,-0.28516 3.78906,-0.85547 4.4336,-2.08985 6.34375,-7.40625 4.25,-11.84375 -1.01172,-2.15235 -2.80078,-3.77735 -5.03906,-4.58203 -2.23438,-0.80469 -4.65625,-0.69141 -6.80078,0.32812 -2.15235,1.01172 -3.77735,2.80469 -4.57813,5.04297 -0.57812,1.60547 -0.66406,3.30078 -0.30078,4.92578 l -38.41797,18.125 -24.74609,-9.19922 23.34766,-11.01562 6.69921,-18.972659 30.26172,-14.273437 c 1.70313,2.167968 4.26953,3.445312 6.96875,3.445312 1.26953,0 2.5586,-0.273437 3.77735,-0.847656 4.4375,-2.09375 6.34375,-7.410156 4.2539,-11.847656 -2.09375,-4.4375 -7.41406,-6.34375 -11.84375,-4.25 -3.82422,1.800781 -5.7539,6 -4.8789,9.96875 l -31.69532,14.953125 -6.69921,18.972661 -32.76172,15.45703 V 76.773438 c 1.97656,2.183593 3.9375,3.847656 5.59375,5.042968 0.89062,0.636719 8.80468,6.210938 13.67968,4.59375 2.83204,-0.945312 4.35547,-4.003906 3.41407,-6.835937 -0.75391,-2.265625 -2.86328,-3.699219 -5.125,-3.699219 -0.0391,0 -0.0781,0 -0.11328,0.0039 -1.875,-0.578125 -17.29688,-6.195312 -17.44922,-29.957031 V 45.5664 c 0,-0.02734 -0.008,-0.05469 -0.008,-0.08203 0.0586,-23.996094 21.875,-32.964844 33.16407,-34.429687 l -3.47266,3.210937 v 25.910156 c -4.26562,0.90625 -7.47656,4.699219 -7.47656,9.226563 0,5.207031 4.23437,9.441406 9.4375,9.441406 5.20312,0 9.4375,-4.234375 9.4375,-9.441406 0,-4.527344 -3.21094,-8.320313 -7.47266,-9.226563 v -24.1875 l 5.42969,-5.011719 c 9.84766,0.808594 22.23047,5.839844 28.99219,14.847657 4.74609,6.316406 6.03906,13.796875 3.9414,22.234375 l -6.26953,6.09375 c -2.13672,2.082031 -2.1875,5.503906 -0.10547,7.640625 1.0586,1.09375 2.46485,1.640625 3.8711,1.640625 1.35937,0 2.71875,-0.507813 3.76953,-1.53125 l 5.99219,-5.824219 c 0.53125,-0.08984 1.09375,-0.195313 1.70703,-0.304687 10.28125,-1.902344 21.82031,-3 28.71875,8.078124 7.48047,12.023438 5.57031,20.085938 4.75,22.40625 l -5.5586,4.695313 c -2.28125,1.925781 -2.5664,5.339844 -0.64062,7.617187 1.07031,1.265626 2.59375,1.917973 4.1289,1.917973 1.23438,0 2.46875,-0.41797 3.48438,-1.277347 l 5,-4.222657 c 5.63281,0.1875 23.20703,2.105469 29.58984,17.855474 h -46.8125 l -26.50781,27.30468 v 27.61328 c -4.64844,1.05469 -8.14062,5.20313 -8.14062,10.17188 0,5.75782 4.6914,10.44532 10.44921,10.44532 5.75782,0 10.44922,-4.6875 10.44922,-10.44532 0,-4.96875 -3.49218,-9.11718 -8.14062,-10.17188 v -25.73828 l 23.83984,-24.5664 h 46.4336 c 3.3125,11.99999 1.68359,23.73437 -2.10938,32.49608 H 317.34747 L 301.992,167.68358 v 16.95703 c -4.64844,1.0586 -8.14063,5.20704 -8.14063,10.17188 0,5.76172 4.69141,10.44922 10.44922,10.44922 5.75781,0 10.44922,-4.6875 10.44922,-10.44922 0,-4.96484 -3.49219,-9.11328 -8.14063,-10.17188 v -15.23828 l 12.84375,-14.83593 h 33.15235 c -2.10547,3.51953 -4.5586,6.25781 -7.09766,7.96485 h -15.3789 c -2.98438,0 -5.40235,2.42187 -5.40235,5.40625 0,2.98437 2.41797,5.40234 5.40235,5.40234 h 15.74218 c 5.21094,2.50782 8.10547,5.57032 9.07422,13.75782 0.5586,13.91796 -5.30859,19.83984 -14.95312,24.86718 z m -27.78125,13.44141 c 0,-4.28906 3.48437,-7.77734 7.77343,-7.77734 4.28516,0 7.77344,3.48828 7.77344,7.77734 0,4.28906 -3.48828,7.77734 -7.77344,7.77734 -4.28906,0 -7.77343,-3.48828 -7.77343,-7.77734 z m -29.89844,2.95312 c 0,-2.7539 2.23437,-4.98828 4.98437,-4.98828 2.75,0 4.98438,2.23438 4.98438,4.98828 0,2.75 -2.23438,4.98438 -4.98438,4.98438 -2.75,0 -4.98437,-2.23438 -4.98437,-4.98438 z m -31.66797,-3.52734 c -2.75,0 -4.98437,-2.23437 -4.98437,-4.98437 0,-2.75 2.23437,-4.98438 4.98437,-4.98438 2.75391,0 4.98438,2.23438 4.98438,4.98438 0,2.75 -2.23438,4.98437 -4.98438,4.98437 z m -10.13672,99.73438 c -2.75,0 -4.98437,-2.23438 -4.98437,-4.98438 0,-2.75391 2.23437,-4.98437 4.98437,-4.98437 2.75,0 4.98438,2.23046 4.98438,4.98437 0,2.75 -2.23438,4.98438 -4.98438,4.98438 z m -0.0625,-31.90625 c 0,-2.86719 2.33203,-5.19922 5.19922,-5.19922 2.86719,0 5.20313,2.33203 5.20313,5.19922 0,2.86718 -2.33204,5.20312 -5.20313,5.20312 -2.86719,0 -5.19922,-2.33594 -5.19922,-5.20312 z m -21.80859,-41.80469 c 0,-3.36719 2.73828,-6.10547 6.10547,-6.10547 3.36718,0 6.10156,2.73828 6.10156,6.10547 0,3.36719 -2.73438,6.10547 -6.10156,6.10547 -3.36719,0 -6.10547,-2.73828 -6.10547,-6.10547 z m 4.17969,-46.58594 c 2.13671,0 3.87109,1.74219 3.87109,3.87891 0,2.13672 -1.73438,3.875 -3.87109,3.875 -2.13282,0 -3.875,-1.73828 -3.875,-3.875 0,-2.13672 1.74218,-3.87891 3.875,-3.87891 z m 37.76171,-22.00391 c 0,-2.13671 1.74219,-3.875 3.87891,-3.875 2.13281,0 3.875,1.73829 3.875,3.875 0,2.13672 -1.74219,3.875 -3.875,3.875 -2.13672,0 -3.87891,-1.73828 -3.87891,-3.875 z m 0,-16.66796 c 0,-2.13282 1.74219,-3.8711 3.87891,-3.8711 2.13281,0 3.875,1.73828 3.875,3.8711 0,2.14062 -1.74219,3.8789 -3.875,3.8789 -2.13672,0 -3.87891,-1.73828 -3.87891,-3.8789 z m -31.82421,-11.69922 c 0,-1.78125 1.44921,-3.22657 3.22656,-3.22657 1.78125,0 3.23047,1.44532 3.23047,3.22657 0,1.78125 -1.44922,3.22656 -3.23047,3.22656 -1.77735,0 -3.22656,-1.44531 -3.22656,-3.22656 z m 56.0625,-43.38281 c 0.44921,-1.25 1.35937,-2.25 2.55859,-2.82032 0.67578,-0.3164 1.39453,-0.47656 2.11328,-0.47656 0.56641,0 1.13672,0.0977 1.6875,0.29688 1.24609,0.44921 2.24609,1.35546 2.8125,2.55468 1.16797,2.48047 0.10156,5.44922 -2.375,6.61719 -1.19922,0.5625 -2.54297,0.63672 -3.80078,0.18359 -1.24609,-0.44921 -2.24609,-1.35937 -2.8125,-2.55859 -0.56641,-1.19922 -0.63281,-2.55078 -0.18359,-3.79687 z m -2.02344,-41.687505 c 0.68359,-0.320313 1.40625,-0.472656 2.11719,-0.472656 1.86328,0 3.65234,1.050781 4.5,2.847656 1.16796,2.476563 0.10156,5.449219 -2.375,6.617187 -2.47657,1.167969 -5.44922,0.101563 -6.61719,-2.375 C 279.25,72.964844 280.31641,70 282.79297,68.828125 Z m -46.0625,-24.933594 c 3.03515,0 5.50781,2.472657 5.50781,5.507813 0,3.039062 -2.47266,5.507812 -5.50781,5.507812 -3.03906,0 -5.51172,-2.46875 -5.51172,-5.507812 0,-3.035156 2.47266,-5.507813 5.51172,-5.507813 z m 47.7539,128.203129 c 3.21485,0 5.83204,2.61718 5.83204,5.83593 0,3.21485 -2.61719,5.83203 -5.83204,5.83203 -3.21875,0 -5.83203,-2.61718 -5.83203,-5.83203 -0.004,-3.21875 2.61328,-5.83593 5.83203,-5.83593 z m 19.8125,16.88281 c 3.21485,0 5.83204,2.61719 5.83204,5.83203 0,3.21484 -2.61719,5.83203 -5.83204,5.83203 -3.21484,0 -5.83203,-2.61719 -5.83203,-5.83203 0,-3.21484 2.61719,-5.83203 5.83203,-5.83203 z m 0,0"
       fill-opacity="1"
       fill-rule="nonzero"
       id="path2"
       style="fill:url(#linearGradient5)" />
  </g>
</svg>
