<?xml version="1.0" encoding="UTF-8" standalone="no"?>
<svg
   width="500"
   zoomAndPan="magnify"
   viewBox="0 0 375 374.999991"
   height="500"
   preserveAspectRatio="xMidYMid meet"
   version="1.0"
   id="svg2"
   sodipodi:docname="interactive.svg"
   inkscape:version="1.3.2 (091e20e, 2023-11-25, custom)"
   xmlns:inkscape="http://www.inkscape.org/namespaces/inkscape"
   xmlns:sodipodi="http://sodipodi.sourceforge.net/DTD/sodipodi-0.dtd"
   xmlns:xlink="http://www.w3.org/1999/xlink"
   xmlns="http://www.w3.org/2000/svg"
   xmlns:svg="http://www.w3.org/2000/svg">
  <sodipodi:namedview
     id="namedview2"
     pagecolor="#ffffff"
     bordercolor="#000000"
     borderopacity="0.25"
     inkscape:showpageshadow="2"
     inkscape:pageopacity="0.0"
     inkscape:pagecheckerboard="0"
     inkscape:deskcolor="#d1d1d1"
     showgrid="false"
     inkscape:zoom="1.8229213"
     inkscape:cx="283.33643"
     inkscape:cy="224.63943"
     inkscape:window-width="2560"
     inkscape:window-height="1566"
     inkscape:window-x="-11"
     inkscape:window-y="1717"
     inkscape:window-maximized="1"
     inkscape:current-layer="svg2" />
  <defs
     id="defs1">
    <linearGradient
       id="linearGradient3"
       inkscape:collect="always">
      <stop
         style="stop-color:#00a0ff;stop-opacity:1;"
         offset="0"
         id="stop3" />
      <stop
         style="stop-color:#00ffa0;stop-opacity:1;"
         offset="1"
         id="stop4" />
    </linearGradient>
    <clipPath
       id="2d3ef4ebd4">
      <path
         d="M 0 8.203125 L 375 8.203125 L 375 366.703125 L 0 366.703125 Z M 0 8.203125 "
         clip-rule="nonzero"
         id="path1" />
    </clipPath>
    <linearGradient
       inkscape:collect="always"
       xlink:href="#linearGradient3"
       id="linearGradient4"
       x1="1.2239275"
       y1="374.63702"
       x2="374.9021"
       y2="2.2951138"
       gradientUnits="userSpaceOnUse" />
  </defs>
  <g
     clip-path="url(#2d3ef4ebd4)"
     id="g2"
     style="fill:#000000">
    <path
       fill="#000000"
       d="M 143.546875 8.542969 C 65.601562 8.542969 0.8125 65.148438 0.8125 136.339844 C 0.8125 170.519531 16.097656 201.558594 40.34375 224.460938 L 39.578125 228.210938 C 34.113281 244.222656 20.671875 253.273438 12.699219 256.164062 C 8.058594 257.816406 4.214844 260.328125 2.085938 264.710938 C -0.0117188 269.0625 1.257812 275.097656 4.4375 278.242188 C 11.871094 285.707031 21.53125 284.976562 28.585938 285.042969 C 55.117188 285.359375 86.382812 271.445312 105.324219 261.980469 L 105.546875 261.882812 L 112.027344 258.136719 L 109.546875 257.371094 L 109.835938 257.4375 C 120.382812 259.882812 131.441406 260.644531 142.308594 260.644531 C 210.847656 260.644531 269.824219 219.695312 282.851562 160.769531 L 282.851562 160.738281 C 284.597656 152.890625 285.519531 144.726562 285.519531 136.339844 C 285.519531 65.214844 221.492188 8.542969 143.546875 8.542969 Z M 143.546875 24.804688 C 213.644531 24.804688 269.25 74.996094 269.25 136.339844 C 269.25 143.550781 268.457031 150.539062 266.964844 157.242188 C 255.84375 207.5625 204.398438 244.378906 142.308594 244.378906 C 132.269531 244.378906 122.386719 243.617188 113.550781 241.585938 L 109.992188 240.535156 L 97.949219 247.460938 C 79.964844 256.449219 48.953125 269.03125 28.777344 268.777344 C 26.011719 268.777344 25.757812 268.238281 23.820312 268.015625 C 35.386719 262.359375 48.730469 252.097656 55.085938 233.230469 L 55.210938 232.816406 L 58.136719 219.09375 L 54.546875 215.917969 C 31.253906 195.554688 17.082031 167.3125 17.082031 136.339844 C 17.082031 75.0625 73.453125 24.804688 143.546875 24.804688 Z M 74.023438 81.730469 L 74.023438 97.996094 L 212.308594 97.996094 L 212.308594 81.730469 Z M 74.023438 122.394531 L 74.023438 138.660156 L 212.308594 138.660156 L 212.308594 122.394531 Z M 300.042969 156.511719 C 299.628906 159.117188 299.34375 161.722656 298.769531 164.296875 C 298.136719 167.089844 297.308594 169.824219 296.484375 172.585938 C 333.945312 187.039062 358.605469 216.171875 358.605469 248.542969 C 358.605469 271.761719 346.527344 293.460938 324.539062 309.691406 L 320.125 312.964844 L 321.492188 318.300781 C 325.875 335.105469 341.253906 343.777344 351.898438 349.558594 C 335.027344 351.847656 298.359375 348.035156 279.929688 326.242188 L 276.847656 322.558594 L 272.144531 323.511719 C 264.738281 324.972656 256.160156 325.703125 245.863281 325.703125 C 195.277344 325.703125 154.191406 306.101562 138.210938 276.78125 C 131.601562 276.65625 125.4375 276.210938 119.652344 275.511719 C 134.746094 315.472656 183.265625 341.96875 245.863281 341.96875 C 255.238281 341.96875 263.40625 341.394531 270.746094 340.285156 C 288.699219 358.457031 317.964844 366.332031 341.667969 366.332031 C 343.226562 366.332031 344.78125 366.300781 346.273438 366.238281 C 360.035156 365.601562 368.996094 362.425781 372.964844 356.804688 C 374.714844 354.261719 375.316406 351.277344 374.617188 348.351562 C 373.253906 342.539062 367.914062 339.679688 360.511719 335.710938 C 353.234375 331.769531 343.667969 326.59375 339.1875 318.875 C 361.972656 300.066406 374.871094 274.78125 374.871094 248.542969 C 374.871094 208.640625 345.035156 173.03125 300.042969 156.511719 Z M 74.023438 163.054688 L 74.023438 179.320312 L 171.636719 179.320312 L 171.636719 163.054688 Z M 277.511719 211.851562 C 273.445312 217.566406 268.964844 223.03125 264.039062 228.113281 L 301.789062 228.113281 L 301.789062 211.851562 Z M 233.378906 252.511719 C 222.160156 259.246094 209.863281 264.742188 196.804688 268.777344 L 301.789062 268.777344 L 301.789062 252.511719 Z M 233.378906 252.511719 "
       fill-opacity="1"
       fill-rule="nonzero"
       id="path2"
       style="fill:url(#linearGradient4)" />
  </g>
</svg>
