<?xml version="1.0" encoding="UTF-8" standalone="no"?>
<svg
   width="500"
   zoomAndPan="magnify"
   viewBox="0 0 375 374.99999"
   height="500"
   preserveAspectRatio="xMidYMid"
   version="1.0"
   id="svg2"
   xmlns="http://www.w3.org/2000/svg"
   xmlns:svg="http://www.w3.org/2000/svg">
  <defs
     id="defs2" />
  <path
     fill="#000000"
     d="M 320.08203,54.917969 C 284.66797,19.503906 237.58203,0 187.5,0 137.41797,0 90.332031,19.503906 54.917969,54.917969 19.503906,90.332031 0,137.41797 0,187.5 0,237.58203 19.503906,284.66797 54.917969,320.08203 90.332031,355.49609 137.41797,375 187.5,375 237.58203,375 284.66797,355.49609 320.08203,320.08203 355.5,284.67187 375,237.58203 375,187.5 375,137.41797 355.49609,90.332031 320.08203,54.917969 Z M 299.65625,311.18359 v -3.67578 c 0,-32.57812 -26.41016,-58.98437 -58.98828,-58.98437 h -102.2461 c -32.57812,0 -58.992182,26.41015 -58.992182,58.98437 v 7.26172 C 43.375,284.10156 20.453125,238.42969 20.453125,187.5 c 0,-92.109375 74.9375,-167.046875 167.046875,-167.046875 92.10937,0 167.04687,74.9375 167.04687,167.046875 0,48.98047 -21.19531,93.10547 -54.89062,123.68359 z m 0,0"
     fill-opacity="1"
     fill-rule="nonzero"
     id="path1"
     style="fill:#ffffff" />
  <path
     fill="#000000"
     d="m 255.33984,164.65625 c 0,1.11719 -0.0273,2.23047 -0.0859,3.34766 -0.0547,1.11328 -0.13672,2.22656 -0.2461,3.33593 -0.10937,1.10938 -0.24219,2.21875 -0.40625,3.32032 -0.16406,1.10546 -0.35547,2.20312 -0.57422,3.29687 -0.21875,1.09766 -0.46093,2.18359 -0.73437,3.26563 -0.26953,1.08203 -0.56641,2.16015 -0.89063,3.22656 -0.32422,1.0664 -0.67578,2.125 -1.05078,3.17578 -0.375,1.05078 -0.77734,2.09375 -1.20312,3.125 -0.42578,1.03125 -0.87891,2.05078 -1.35547,3.05859 -0.47656,1.00782 -0.98047,2.00391 -1.50391,2.98828 -0.52734,0.98438 -1.07812,1.95704 -1.65234,2.91407 -0.57422,0.95703 -1.16797,1.89843 -1.78906,2.82422 -0.6211,0.92968 -1.26172,1.83984 -1.92579,2.73828 -0.66796,0.89453 -1.35156,1.77343 -2.05859,2.63672 -0.71094,0.86328 -1.4375,1.70703 -2.1875,2.53515 -0.75,0.82422 -1.51953,1.63281 -2.30859,2.42188 -0.78907,0.78906 -1.59766,1.55859 -2.42188,2.30859 -0.82812,0.75 -1.67187,1.47656 -2.53515,2.1875 -0.86329,0.70703 -1.74219,1.39063 -2.63672,2.05859 -0.89844,0.66407 -1.8086,1.30469 -2.73828,1.92579 -0.92579,0.62109 -1.86719,1.21484 -2.82422,1.78906 -0.95703,0.57422 -1.92969,1.125 -2.91407,1.65234 -0.98437,0.52344 -1.98046,1.02735 -2.98828,1.50391 -1.00781,0.47656 -2.02734,0.92969 -3.05859,1.35547 -1.03125,0.42578 -2.07422,0.82812 -3.125,1.20312 -1.05078,0.375 -2.10938,0.72656 -3.17578,1.05078 -1.06641,0.32422 -2.14453,0.6211 -3.22656,0.89063 -1.08204,0.27344 -2.16797,0.51562 -3.26563,0.73437 -1.09375,0.21875 -2.19141,0.41016 -3.29687,0.57422 -1.10157,0.16406 -2.21094,0.29688 -3.32032,0.40625 -1.10937,0.10938 -2.22265,0.19141 -3.33593,0.2461 -1.11719,0.0586 -2.23047,0.0859 -3.34766,0.0859 -1.11328,0 -2.23047,-0.0273 -3.34375,-0.0859 -1.11328,-0.0547 -2.22656,-0.13672 -3.33984,-0.2461 -1.10938,-0.10937 -2.21485,-0.24219 -3.32032,-0.40625 -1.10156,-0.16406 -2.20312,-0.35547 -3.29687,-0.57422 -1.09375,-0.21875 -2.1836,-0.46093 -3.26563,-0.73437 -1.08203,-0.26953 -2.15625,-0.56641 -3.22265,-0.89063 -1.07032,-0.32422 -2.12891,-0.67578 -3.17969,-1.05078 -1.05078,-0.375 -2.08984,-0.77734 -3.12109,-1.20312 -1.03125,-0.42578 -2.05079,-0.87891 -3.0586,-1.35547 -1.01172,-0.47656 -2.00781,-0.98047 -2.99219,-1.50391 -0.98046,-0.52734 -1.95312,-1.07812 -2.91015,-1.65234 -0.95703,-0.57422 -1.89844,-1.16797 -2.82813,-1.78906 -0.92578,-0.6211 -1.83984,-1.26172 -2.73437,-1.92579 -0.89844,-0.66796 -1.77735,-1.35156 -2.64063,-2.05859 -0.85937,-0.71094 -1.70703,-1.4375 -2.53125,-2.1875 -0.82812,-0.75 -1.63672,-1.51953 -2.42578,-2.30859 -0.78906,-0.78907 -1.55859,-1.59766 -2.30469,-2.42188 -0.75,-0.82812 -1.48046,-1.67187 -2.1875,-2.53515 -0.70703,-0.86329 -1.39453,-1.74219 -2.05859,-2.63672 -0.66406,-0.89844 -1.30859,-1.8086 -1.92578,-2.73828 -0.62109,-0.92579 -1.21875,-1.86719 -1.79297,-2.82422 -0.57422,-0.95703 -1.12109,-1.92969 -1.64844,-2.91407 -0.52734,-0.98437 -1.02734,-1.98046 -1.5039,-2.98828 -0.47656,-1.00781 -0.92969,-2.02734 -1.35547,-3.05859 -0.42969,-1.03125 -0.82813,-2.07422 -1.20703,-3.125 -0.375,-1.05078 -0.72266,-2.10938 -1.04688,-3.17578 -0.32422,-1.06641 -0.62109,-2.14453 -0.89453,-3.22656 -0.26953,-1.08204 -0.51562,-2.16797 -0.73437,-3.26563 -0.21485,-1.09375 -0.40625,-2.19141 -0.57032,-3.29687 -0.16406,-1.10157 -0.30078,-2.21094 -0.41015,-3.32032 -0.10938,-1.10937 -0.19141,-2.22265 -0.2461,-3.33593 -0.0547,-1.11719 -0.082,-2.23047 -0.082,-3.34766 0,-1.11328 0.0273,-2.23047 0.082,-3.34375 0.0547,-1.11328 0.13672,-2.22656 0.2461,-3.33984 0.10937,-1.10938 0.24609,-2.21485 0.41015,-3.32032 0.16407,-1.10156 0.35547,-2.20312 0.57032,-3.29687 0.21875,-1.09375 0.46484,-2.1836 0.73437,-3.26563 0.27344,-1.08203 0.57031,-2.15625 0.89453,-3.22265 0.32422,-1.07032 0.67188,-2.12891 1.04688,-3.17969 0.3789,-1.05078 0.77734,-2.08984 1.20703,-3.12109 0.42578,-1.03125 0.87891,-2.05079 1.35547,-3.0586 0.47656,-1.01172 0.97656,-2.00781 1.5039,-2.99219 0.52735,-0.98046 1.07422,-1.95312 1.64844,-2.91015 0.57422,-0.95703 1.17188,-1.89844 1.79297,-2.82813 0.61719,-0.92578 1.26172,-1.83984 1.92578,-2.73437 0.66406,-0.89844 1.35156,-1.77734 2.05859,-2.64063 0.70704,-0.85937 1.4375,-1.70703 2.1875,-2.53125 0.7461,-0.82812 1.51563,-1.63671 2.30469,-2.42578 0.78906,-0.78906 1.59766,-1.55859 2.42578,-2.30468 0.82422,-0.75 1.67188,-1.48047 2.53125,-2.1875 0.86328,-0.70704 1.74219,-1.39454 2.64063,-2.0586 0.89453,-0.66406 1.80859,-1.30859 2.73437,-1.92578 0.92969,-0.62109 1.8711,-1.21875 2.82813,-1.79297 0.95703,-0.57422 1.92969,-1.12109 2.91015,-1.64844 C 156,104 156.99609,103.5 158.00781,103.02344 c 1.00781,-0.47656 2.02735,-0.92969 3.0586,-1.35547 1.03125,-0.42969 2.07031,-0.82813 3.12109,-1.20703 1.05078,-0.375 2.10937,-0.722659 3.17969,-1.046878 1.0664,-0.324218 2.14062,-0.621093 3.22265,-0.894531 1.08203,-0.269531 2.17188,-0.515625 3.26563,-0.734375 1.09375,-0.214844 2.19531,-0.40625 3.29687,-0.570312 1.10547,-0.164063 2.21094,-0.300782 3.32032,-0.410156 1.11328,-0.109376 2.22656,-0.191407 3.33984,-0.246094 1.11328,-0.05469 2.23047,-0.08203 3.34375,-0.08203 1.11719,0 2.23047,0.02734 3.34766,0.08203 1.11328,0.05469 2.22656,0.136718 3.33593,0.246094 1.10938,0.109374 2.21875,0.246093 3.32032,0.410156 1.10546,0.164062 2.20312,0.355468 3.29687,0.570312 1.09766,0.21875 2.18359,0.464844 3.26563,0.734375 1.08203,0.273438 2.16015,0.570313 3.22656,0.894531 1.0664,0.324219 2.125,0.671878 3.17578,1.046878 1.05078,0.3789 2.09375,0.77734 3.125,1.20703 1.03125,0.42578 2.05078,0.87891 3.05859,1.35547 1.00782,0.47656 2.00391,0.97656 2.98828,1.5039 0.98438,0.52735 1.95704,1.07422 2.91407,1.64844 0.95703,0.57422 1.89843,1.17188 2.82422,1.79297 0.92968,0.61719 1.83984,1.26172 2.73828,1.92578 0.89453,0.66406 1.77343,1.35156 2.63672,2.0586 0.86328,0.70703 1.70703,1.4375 2.53515,2.1875 0.82422,0.74609 1.63281,1.51562 2.42188,2.30468 0.78906,0.78907 1.55859,1.59766 2.30859,2.42578 0.75,0.82422 1.47656,1.67188 2.1875,2.53125 0.70703,0.86329 1.39063,1.74219 2.05859,2.64063 0.66407,0.89453 1.30469,1.80859 1.92579,2.73437 0.62109,0.92969 1.21484,1.8711 1.78906,2.82813 0.57422,0.95703 1.125,1.92969 1.65234,2.91015 0.52344,0.98438 1.02735,1.98047 1.50391,2.99219 0.47656,1.00781 0.92969,2.02735 1.35547,3.0586 0.42578,1.03125 0.82812,2.07031 1.20312,3.12109 0.375,1.05078 0.72656,2.10937 1.05078,3.17969 0.32422,1.0664 0.6211,2.14062 0.89063,3.22265 0.27344,1.08203 0.51562,2.17188 0.73437,3.26563 0.21875,1.09375 0.41016,2.19531 0.57422,3.29687 0.16406,1.10547 0.29688,2.21094 0.40625,3.32032 0.10938,1.11328 0.19141,2.22656 0.2461,3.33984 0.0586,1.11328 0.0859,2.23047 0.0859,3.34375 z m 0,0"
     fill-opacity="1"
     fill-rule="nonzero"
     id="path2"
     style="fill:#ffffff" />
</svg>
