<svg xmlns="http://www.w3.org/2000/svg" xmlns:xlink="http://www.w3.org/1999/xlink" width="500" zoomAndPan="magnify" viewBox="0 0 375 374.999991" height="500" preserveAspectRatio="xMidYMid meet" version="1.0"><defs><clipPath id="776295b212"><path d="M 86.765625 71.210938 L 288 71.210938 L 288 303.710938 L 86.765625 303.710938 Z M 86.765625 71.210938 " clip-rule="nonzero"/></clipPath><clipPath id="16627d785b"><path d="M 105.753906 131.550781 L 107.203125 131.550781 L 107.203125 132.773438 L 105.753906 132.773438 Z M 105.753906 131.550781 " clip-rule="nonzero"/></clipPath><clipPath id="7accfca40b"><path d="M 107.175781 132 C 106.574219 132.976562 105.976562 132.824219 105.824219 132.601562 C 105.675781 132.375 105.824219 131.773438 105.976562 131.625 C 106.199219 131.476562 107.023438 131.699219 107.023438 131.699219 " clip-rule="nonzero"/></clipPath></defs><g clip-path="url(#776295b212)"><path fill="#ffffff" d="M 271.828125 96.390625 L 238.304688 96.390625 L 238.304688 91.605469 C 238.304688 80.378906 229.171875 71.25 217.949219 71.25 L 156.78125 71.25 C 145.554688 71.25 136.425781 80.378906 136.425781 91.605469 L 136.425781 96.390625 L 102.902344 96.390625 C 94.121094 96.390625 86.976562 103.535156 86.976562 112.316406 L 86.976562 119.867188 C 86.976562 128.089844 93.234375 134.871094 101.238281 135.710938 L 117.636719 279.632812 C 119.203125 293.378906 130.816406 303.742188 144.652344 303.742188 L 230.074219 303.742188 C 243.910156 303.742188 255.527344 293.378906 257.089844 279.632812 L 273.492188 135.710938 C 281.492188 134.875 287.753906 128.089844 287.753906 119.867188 L 287.753906 112.316406 C 287.753906 103.535156 280.605469 96.390625 271.824219 96.390625 Z M 146.761719 91.605469 C 146.761719 86.078125 151.257812 81.585938 156.785156 81.585938 L 217.949219 81.585938 C 223.476562 81.585938 227.972656 86.078125 227.972656 91.605469 L 227.972656 96.390625 L 146.761719 96.390625 Z M 246.824219 278.464844 C 245.855469 286.984375 238.65625 293.40625 230.082031 293.40625 L 144.65625 293.40625 C 136.082031 293.40625 128.882812 286.984375 127.914062 278.464844 L 111.660156 135.796875 L 263.082031 135.796875 Z M 277.421875 119.867188 C 277.421875 122.953125 274.914062 125.460938 271.828125 125.460938 L 102.902344 125.460938 C 99.820312 125.460938 97.3125 122.953125 97.3125 119.867188 L 97.3125 112.316406 C 97.3125 109.238281 99.820312 106.726562 102.902344 106.726562 L 271.824219 106.726562 C 274.90625 106.726562 277.417969 109.238281 277.417969 112.316406 L 277.417969 119.867188 Z M 277.421875 119.867188 " fill-opacity="1" fill-rule="nonzero"/></g><path fill="#ffffff" d="M 187.363281 265.433594 C 190.21875 265.433594 192.535156 263.117188 192.535156 260.265625 L 192.535156 168.9375 C 192.535156 166.085938 190.21875 163.769531 187.363281 163.769531 C 184.511719 163.769531 182.195312 166.085938 182.195312 168.9375 L 182.195312 260.265625 C 182.195312 263.117188 184.511719 265.433594 187.363281 265.433594 Z M 187.363281 265.433594 " fill-opacity="1" fill-rule="nonzero"/><path fill="#ffffff" d="M 218.261719 265.195312 C 218.429688 265.210938 218.601562 265.21875 218.765625 265.21875 C 221.398438 265.21875 223.644531 263.226562 223.90625 260.554688 L 232.757812 169.652344 C 233.035156 166.8125 230.957031 164.285156 228.117188 164.007812 C 225.234375 163.714844 222.746094 165.808594 222.46875 168.648438 L 213.617188 259.546875 C 213.339844 262.390625 215.417969 264.917969 218.257812 265.195312 Z M 218.261719 265.195312 " fill-opacity="1" fill-rule="nonzero"/><path fill="#ffffff" d="M 155.960938 265.21875 C 156.128906 265.21875 156.296875 265.210938 156.46875 265.195312 C 159.308594 264.921875 161.386719 262.390625 161.109375 259.546875 L 152.257812 168.648438 C 151.980469 165.808594 149.492188 163.71875 146.609375 164.007812 C 143.769531 164.28125 141.695312 166.8125 141.96875 169.652344 L 150.824219 260.554688 C 151.085938 263.222656 153.332031 265.21875 155.960938 265.21875 Z M 155.960938 265.21875 " fill-opacity="1" fill-rule="nonzero"/><g clip-path="url(#16627d785b)"><g clip-path="url(#7accfca40b)"><path fill="#ffffff" d="M 102.824219 128.625 L 110.242188 128.625 L 110.242188 135.898438 L 102.824219 135.898438 Z M 102.824219 128.625 " fill-opacity="1" fill-rule="nonzero"/></g></g></svg>