<svg xmlns="http://www.w3.org/2000/svg" xmlns:xlink="http://www.w3.org/1999/xlink" width="500" zoomAndPan="magnify" viewBox="0 0 375 374.999991" height="500" preserveAspectRatio="xMidYMid meet" version="1.0"><defs><clipPath id="b8897c4289"><path d="M 120 103.019531 L 255 103.019531 L 255 290.519531 L 120 290.519531 Z M 120 103.019531 " clip-rule="nonzero"/></clipPath><clipPath id="5969f14beb"><path d="M 177.105469 178.402344 L 197.925781 178.402344 L 197.925781 196.597656 L 177.105469 196.597656 Z M 177.105469 178.402344 " clip-rule="nonzero"/></clipPath><clipPath id="de0b91daf3"><path d="M 187.5 178.402344 L 197.894531 196.597656 L 177.105469 196.597656 Z M 187.5 178.402344 " clip-rule="nonzero"/></clipPath></defs><g clip-path="url(#b8897c4289)"><path fill="#ffffff" d="M 200.734375 277.042969 L 200.734375 156.605469 C 200.734375 155.253906 201.550781 154.023438 202.804688 153.507812 C 204.058594 152.988281 205.5 153.277344 206.457031 154.238281 L 231.480469 179.257812 C 234.015625 181.789062 237.378906 183.183594 240.960938 183.183594 C 244.539062 183.183594 247.90625 181.789062 250.441406 179.257812 C 255.507812 174.195312 255.507812 165.359375 250.441406 160.296875 L 196.808594 106.664062 C 194.273438 104.128906 190.90625 102.734375 187.328125 102.734375 C 183.746094 102.734375 180.378906 104.128906 177.84375 106.664062 L 124.210938 160.296875 C 119.144531 165.359375 119.144531 174.195312 124.210938 179.257812 C 126.746094 181.789062 130.109375 183.183594 133.695312 183.183594 C 137.277344 183.183594 140.644531 181.789062 143.175781 179.257812 L 168.195312 154.238281 C 169.15625 153.277344 170.597656 152.988281 171.851562 153.507812 C 173.105469 154.023438 173.917969 155.253906 173.917969 156.605469 L 173.917969 277.042969 C 173.917969 284.4375 179.933594 290.453125 187.328125 290.453125 C 194.722656 290.453125 200.734375 284.4375 200.734375 277.042969 Z M 200.734375 277.042969 " fill-opacity="1" fill-rule="nonzero"/></g><g clip-path="url(#5969f14beb)"><g clip-path="url(#de0b91daf3)"><path fill="#ffffff" d="M 177.105469 178.402344 L 197.925781 178.402344 L 197.925781 196.597656 L 177.105469 196.597656 Z M 177.105469 178.402344 " fill-opacity="1" fill-rule="nonzero"/></g></g></svg>