<svg id="svg" xmlns="http://www.w3.org/2000/svg" xmlns:xlink="http://www.w3.org/1999/xlink" width="400" height="353.2710280373832" viewBox="0, 0, 400,353.2710280373832"><g id="svgg"><path id="path0" d="M28.151 31.698 C 86.586 133.025,199.556 328.603,199.814 328.886 C 200.088 329.186,371.165 33.787,375.786 25.034 L 376.339 23.988 200.022 23.988 L 23.704 23.988 28.151 31.698 M161.905 89.720 C 173.352 109.514,182.483 125.628,182.420 125.926 C 182.357 126.221,175.605 138.067,167.416 152.250 C 159.226 166.433,151.947 179.049,151.240 180.286 L 149.955 182.535 113.237 118.916 C 93.042 83.925,76.319 54.980,76.073 54.594 L 75.627 53.891 108.451 53.971 L 141.275 54.050 161.905 89.720 M223.988 54.083 C 223.988 54.582,200.128 95.564,199.943 95.381 C 199.728 95.169,177.263 56.329,176.442 54.751 L 175.996 53.894 199.992 53.894 C 213.190 53.894,223.988 53.979,223.988 54.083 M324.247 54.159 C 323.329 56.501,200.083 269.056,199.815 268.760 C 199.241 268.126,167.498 212.954,167.498 212.590 C 167.497 212.331,208.660 140.885,257.717 55.997 L 258.932 53.894 291.642 53.894 C 309.632 53.894,324.304 54.013,324.247 54.159 " stroke="none" fill="#ffffff" fill-rule="evenodd"></path></g></svg>