<svg xmlns="http://www.w3.org/2000/svg" xmlns:xlink="http://www.w3.org/1999/xlink" width="500" zoomAndPan="magnify" viewBox="0 0 375 374.999991" height="500" preserveAspectRatio="xMidYMid meet" version="1.0"><defs><clipPath id="f5267bfa4b"><path d="M 187.5 0 C 83.945312 0 0 83.945312 0 187.5 C 0 291.054688 83.945312 375 187.5 375 C 291.054688 375 375 291.054688 375 187.5 C 375 83.945312 291.054688 0 187.5 0 Z M 187.5 0 " clip-rule="nonzero"/></clipPath></defs><g clip-path="url(#f5267bfa4b)"><rect x="-37.5" width="450" fill="#000000" y="-37.499999" height="449.999989" fill-opacity="1"/></g><path fill="#ffffff" d="M 58.816406 104.371094 C 102.574219 180.246094 187.167969 326.699219 187.359375 326.914062 C 187.566406 327.136719 315.671875 105.933594 319.132812 99.378906 L 319.546875 98.597656 L 55.484375 98.597656 L 58.816406 104.371094 M 158.972656 147.816406 C 167.546875 162.640625 174.382812 174.707031 174.335938 174.929688 C 174.289062 175.152344 169.230469 184.023438 163.101562 194.640625 C 156.96875 205.261719 151.515625 214.710938 150.988281 215.636719 L 150.023438 217.320312 L 122.53125 169.679688 C 107.40625 143.480469 94.882812 121.804688 94.699219 121.515625 L 94.367188 120.988281 L 118.945312 121.046875 L 143.523438 121.109375 L 158.972656 147.816406 M 205.460938 121.132812 C 205.460938 121.507812 187.597656 152.195312 187.457031 152.058594 C 187.296875 151.898438 170.472656 122.8125 169.859375 121.632812 L 169.523438 120.992188 L 187.492188 120.992188 C 197.378906 120.992188 205.460938 121.054688 205.460938 121.132812 M 280.539062 121.1875 C 279.851562 122.941406 187.5625 282.109375 187.363281 281.886719 C 186.929688 281.414062 163.160156 240.097656 163.160156 239.828125 C 163.160156 239.632812 193.984375 186.132812 230.71875 122.566406 L 231.628906 120.992188 L 256.125 120.992188 C 269.59375 120.992188 280.582031 121.078125 280.539062 121.1875 " fill-opacity="1" fill-rule="evenodd"/></svg>